<svg width="147" height="41" viewBox="0 0 147 41" fill="none" xmlns="http://www.w3.org/2000/svg">
<path d="M15.951 32.4798C15.951 35.1801 15.2602 37.2839 13.8472 38.7597C12.4657 40.2355 10.5503 40.9577 8.13251 40.9577C5.58914 40.9577 3.57956 40.0157 2.07238 38.1631C1.19319 37.0641 0.627992 35.7139 0.376795 34.0184C0.125598 32.3542 0 29.9678 0 26.8278C0 23.6879 0.125598 21.3015 0.376795 19.6373C0.627992 17.9731 1.19319 16.5916 2.07238 15.4926C3.57956 13.64 5.58914 12.698 8.13251 12.698C10.3305 12.698 12.1517 13.3888 13.5646 14.739C15.009 16.1834 15.794 18.2557 15.9196 20.8933H10.4247C10.3619 18.7267 9.57689 17.6277 8.13251 17.6277C7.25332 17.6277 6.62533 18.0045 6.27993 18.7267C5.77754 19.6687 5.55774 22.3691 5.55774 26.7964C5.55774 31.2238 5.80894 33.8928 6.27993 34.8661C6.65673 35.5883 7.25332 35.9651 8.13251 35.9651C9.67109 35.9651 10.4247 34.8976 10.4247 32.7624V29.9364H8.13251V25.4777H15.9196V32.4798H15.951Z" fill="url(#paint0_linear_1:7814)"/>
<path d="M32.3004 15.2728C33.4622 16.7486 34.0588 18.9465 34.0588 21.8353C34.0588 24.7241 33.4622 26.922 32.3004 28.3978C31.1386 29.8736 29.129 30.6272 26.303 30.6272H24.0109V40.6437H18.5159V13.0434H26.303C29.1604 13.0434 31.1386 13.797 32.3004 15.2728ZM28.501 23.2483C28.5324 22.9029 28.5638 22.4319 28.5638 21.8667C28.5638 21.3015 28.5324 20.8305 28.501 20.4851C28.4696 20.1397 28.3754 19.7629 28.2184 19.3233C28.0614 18.8837 27.8416 18.5697 27.4962 18.3499C27.1508 18.1301 26.7112 18.0359 26.146 18.0359H24.0109V25.7289H26.146C26.6798 25.7289 27.1194 25.6347 27.4962 25.4149C27.8416 25.1951 28.0928 24.8811 28.2184 24.4415C28.3754 23.9705 28.4696 23.5937 28.501 23.2483Z" fill="url(#paint1_linear_1:7814)"/>
<path d="M51.8219 40.6751H47.1433L41.303 27.1732V40.6751H35.808V13.0434H40.6122L46.3583 26.5452V13.0434H51.8533V40.6751H51.8219Z" fill="url(#paint2_linear_1:7814)"/>
<path d="M82.7216 40.4095H72V12.6978H82.7216V15.6808H75.3721V24.9757H81.684V27.9587H75.3289V37.3833H82.6783V40.4095H82.7216Z" fill="url(#paint3_linear_1:7814)"/>
<path d="M99.8852 12.6978L93.876 40.4095H90.4606L84.4514 12.6978H88.1693L92.1899 35.0055L96.2537 12.6978H99.8852Z" fill="url(#paint4_linear_1:7814)"/>
<path d="M113.244 40.4095H102.522V12.6978H113.244V15.6808H105.894V24.9757H112.249V27.9587H105.894V37.3833H113.244V40.4095Z" fill="url(#paint5_linear_1:7814)"/>
<path d="M130.84 40.4095H127.814L120.638 21.4739V40.4095H117.309V12.6978H120.422L127.512 31.6766V12.741H130.84V40.4095Z" fill="url(#paint6_linear_1:7814)"/>
<path d="M146.879 15.6808H142.209V40.4095H138.881V15.6808H134.212V12.6978H146.879V15.6808Z" fill="url(#paint7_linear_1:7814)"/>
<path d="M147 7H72V4H147V7Z" fill="url(#paint8_linear_1:7814)"/>
<path d="M52 7H0V4H52V7Z" fill="url(#paint9_linear_1:7814)"/>
<path d="M61.9089 7.00018C61.0596 7.00018 60.4102 6.30018 60.4102 5.50018C60.4102 4.65018 61.1096 4.00018 61.9089 4.00018C62.7582 4.00018 63.4076 4.70018 63.4076 5.50018C63.4576 6.30018 62.7582 7.00018 61.9089 7.00018Z" fill="url(#paint10_linear_1:7814)"/>
<path d="M65.8313 3L64.7891 4.24985C65.1539 4.5759 65.3623 5.11932 65.3623 5.60839C65.3623 6.1518 65.1539 6.64088 64.7891 6.96692L65.8313 8.21677C66.5609 7.56467 66.9778 6.58653 66.9778 5.60839C66.9257 4.63024 66.5088 3.70644 65.8313 3Z" fill="url(#paint11_linear_1:7814)"/>
<path d="M69.9992 5.6996C69.9992 3.79765 69.2175 1.95005 67.8626 0.700195L66.8203 1.95005C67.8626 2.92819 68.4358 4.28673 68.4358 5.6996C68.4358 7.11248 67.8626 8.47102 66.8203 9.44916L67.8626 10.699C69.2175 9.39482 69.9992 7.60155 69.9992 5.6996Z" fill="url(#paint12_linear_1:7814)"/>
<path d="M58.1699 3.00018C57.4404 3.65228 57.0234 4.63043 57.0234 5.60857C57.0234 6.58672 57.4404 7.56486 58.1699 8.21695L59.2122 6.96711C58.8474 6.64106 58.639 6.09764 58.639 5.60857C58.639 5.06516 58.8474 4.57609 59.2122 4.25004L58.1699 3.00018Z" fill="url(#paint13_linear_1:7814)"/>
<path d="M54 5.6996C54 7.60155 54.7817 9.39482 56.1366 10.699L57.1789 9.44916C56.1366 8.47102 55.5634 7.11248 55.5634 5.6996C55.5634 4.28673 56.1366 2.92819 57.1789 1.95005L56.1366 0.700195C54.7817 1.95005 54 3.79765 54 5.6996Z" fill="url(#paint14_linear_1:7814)"/>
<defs>
<linearGradient id="paint0_linear_1:7814" x1="8.34587" y1="27.0788" x2="53.5649" y2="79.4667" gradientUnits="userSpaceOnUse">
<stop stop-color="#3297FF"/>
<stop offset="1" stop-color="#3A3C87"/>
</linearGradient>
<linearGradient id="paint1_linear_1:7814" x1="17.1303" y1="18.3767" x2="62.3494" y2="70.7646" gradientUnits="userSpaceOnUse">
<stop stop-color="#3297FF"/>
<stop offset="1" stop-color="#3A3C87"/>
</linearGradient>
<linearGradient id="paint2_linear_1:7814" x1="27.6515" y1="8.17623" x2="72.8705" y2="60.5641" gradientUnits="userSpaceOnUse">
<stop stop-color="#3297FF"/>
<stop offset="1" stop-color="#3A3C87"/>
</linearGradient>
<linearGradient id="paint3_linear_1:7814" x1="55.7404" y1="1.50873" x2="117.999" y2="73.6381" gradientUnits="userSpaceOnUse">
<stop stop-color="#3297FF"/>
<stop offset="1" stop-color="#3A3C87"/>
</linearGradient>
<linearGradient id="paint4_linear_1:7814" x1="65.9452" y1="-7.29925" x2="128.204" y2="64.8302" gradientUnits="userSpaceOnUse">
<stop stop-color="#3297FF"/>
<stop offset="1" stop-color="#3A3C87"/>
</linearGradient>
<linearGradient id="paint5_linear_1:7814" x1="73.2275" y1="-13.5851" x2="135.487" y2="58.5443" gradientUnits="userSpaceOnUse">
<stop stop-color="#3297FF"/>
<stop offset="1" stop-color="#3A3C87"/>
</linearGradient>
<linearGradient id="paint6_linear_1:7814" x1="82.5186" y1="-21.6038" x2="144.778" y2="50.5257" gradientUnits="userSpaceOnUse">
<stop stop-color="#3297FF"/>
<stop offset="1" stop-color="#3A3C87"/>
</linearGradient>
<linearGradient id="paint7_linear_1:7814" x1="93.2796" y1="-30.8931" x2="155.539" y2="41.2363" gradientUnits="userSpaceOnUse">
<stop stop-color="#3297FF"/>
<stop offset="1" stop-color="#3A3C87"/>
</linearGradient>
<linearGradient id="paint8_linear_1:7814" x1="61.4837" y1="-64.5551" x2="185.827" y2="49.8272" gradientUnits="userSpaceOnUse">
<stop stop-color="#3297FF"/>
<stop offset="1" stop-color="#3A3C87"/>
</linearGradient>
<linearGradient id="paint9_linear_1:7814" x1="-17.4243" y1="-19.6455" x2="73.2987" y2="190.798" gradientUnits="userSpaceOnUse">
<stop stop-color="#3297FF"/>
<stop offset="1" stop-color="#3A3C87"/>
</linearGradient>
<linearGradient id="paint10_linear_1:7814" x1="42.1983" y1="-17.3924" x2="114.213" y2="65.9689" gradientUnits="userSpaceOnUse">
<stop stop-color="#3297FF"/>
<stop offset="1" stop-color="#3A3C87"/>
</linearGradient>
<linearGradient id="paint11_linear_1:7814" x1="43.607" y1="-21.1914" x2="122.277" y2="66.2137" gradientUnits="userSpaceOnUse">
<stop stop-color="#3297FF"/>
<stop offset="1" stop-color="#3A3C87"/>
</linearGradient>
<linearGradient id="paint12_linear_1:7814" x1="44.7794" y1="-22.2109" x2="123.449" y2="65.1944" gradientUnits="userSpaceOnUse">
<stop stop-color="#3297FF"/>
<stop offset="1" stop-color="#3A3C87"/>
</linearGradient>
<linearGradient id="paint13_linear_1:7814" x1="39.2198" y1="-17.2432" x2="117.89" y2="70.1622" gradientUnits="userSpaceOnUse">
<stop stop-color="#3297FF"/>
<stop offset="1" stop-color="#3A3C87"/>
</linearGradient>
<linearGradient id="paint14_linear_1:7814" x1="38.0455" y1="-16.1503" x2="116.716" y2="71.2548" gradientUnits="userSpaceOnUse">
<stop stop-color="#3297FF"/>
<stop offset="1" stop-color="#3A3C87"/>
</linearGradient>
</defs>
</svg>
