<svg width="32" height="32" viewBox="0 0 32 32" fill="none" xmlns="http://www.w3.org/2000/svg">
<path d="M13.3332 25.3333C13.0217 25.3339 12.7198 25.2254 12.4799 25.0267C12.3449 24.9147 12.2333 24.7773 12.1515 24.6221C12.0697 24.467 12.0193 24.2973 12.0032 24.1226C11.9871 23.948 12.0056 23.7719 12.0577 23.6044C12.1097 23.437 12.1943 23.2814 12.3066 23.1467L18.2799 16L12.5199 8.84C12.4092 8.70362 12.3264 8.54669 12.2765 8.37824C12.2266 8.20979 12.2105 8.03313 12.2291 7.85843C12.2477 7.68372 12.3006 7.51441 12.3848 7.36023C12.4691 7.20605 12.5829 7.07003 12.7199 6.96C12.8579 6.83862 13.0194 6.74706 13.1944 6.69108C13.3694 6.63509 13.5541 6.61589 13.7369 6.63467C13.9197 6.65345 14.0967 6.70981 14.2566 6.80021C14.4166 6.89061 14.5562 7.01311 14.6666 7.16L21.1066 15.16C21.3027 15.3986 21.4099 15.6978 21.4099 16.0067C21.4099 16.3155 21.3027 16.6148 21.1066 16.8533L14.4399 24.8533C14.3061 25.0147 14.1362 25.1422 13.944 25.2256C13.7517 25.309 13.5424 25.3459 13.3332 25.3333Z" fill="#3486E8"/>
</svg>
