<svg width="43" height="42" viewBox="0 0 43 42" fill="none" xmlns="http://www.w3.org/2000/svg">
<circle cx="21.042" cy="21" r="21" fill="black"/>
<path d="M22.872 28C22.7226 28.0005 22.575 27.9676 22.44 27.9035C22.305 27.8395 22.1861 27.7461 22.092 27.63L17.262 21.63C17.1149 21.4511 17.0345 21.2267 17.0345 20.995C17.0345 20.7634 17.1149 20.539 17.262 20.36L22.262 14.36C22.4317 14.1558 22.6756 14.0274 22.94 14.003C23.2045 13.9786 23.4677 14.0603 23.672 14.23C23.8762 14.3998 24.0046 14.6437 24.029 14.9081C24.0534 15.1725 23.9717 15.4358 23.802 15.64L19.332 21L23.652 26.36C23.7742 26.5068 23.8519 26.6856 23.8758 26.8751C23.8997 27.0647 23.8688 27.2571 23.7867 27.4296C23.7046 27.6021 23.5749 27.7475 23.4128 27.8486C23.2507 27.9497 23.063 28.0023 22.872 28Z" fill="white"/>
</svg>
