<svg width="30" height="30" viewBox="0 0 30 30" fill="none" xmlns="http://www.w3.org/2000/svg">
<path d="M29.1211 24.7266H24.668V4.39453C24.668 1.97139 22.6966 0 20.2734 0C19.6276 0 5.13656 0 4.45312 0C2.02365 0 0 1.96494 0 4.39453C0 4.87992 0.393516 5.27344 0.878906 5.27344H5.33203V25.6055C5.33203 28.0286 7.30342 30 9.72656 30H25.5469C26.7205 30 27.832 29.5454 28.6764 28.7199C29.53 27.8856 30 26.7796 30 25.6055C30 25.1201 29.6065 24.7266 29.1211 24.7266ZM5.33203 3.51562H1.91807C2.2974 2.50301 3.30527 1.75781 4.45312 1.75781H5.33203V3.51562ZM12.3633 25.6055C12.3633 27.0594 11.1804 28.2422 9.72656 28.2422C8.27268 28.2422 7.08984 27.0594 7.08984 25.6055V1.75781H20.2734C21.7273 1.75781 22.9102 2.94064 22.9102 4.39453V24.7266H13.2422C12.7568 24.7266 12.3633 25.1201 12.3633 25.6055ZM25.5469 28.2422H13.2401C13.6247 27.731 13.9005 27.1274 14.0328 26.4785H28.0819C27.7026 27.4911 26.6947 28.2422 25.5469 28.2422Z" fill="#002033" fill-opacity="0.3"/>
<path d="M20.895 16.0782L18.8798 14.063H19.3946C19.7501 14.063 20.0706 13.8488 20.2066 13.5204C20.3426 13.192 20.2674 12.8139 20.0161 12.5625L18.0009 10.5473H18.5157C18.8712 10.5473 19.1917 10.3332 19.3277 10.0048C19.4637 9.67634 19.3885 9.29829 19.1372 9.04692L15.6215 5.5313C15.2784 5.18805 14.7218 5.18805 14.3786 5.5313L10.863 9.04692C10.6116 9.29829 10.5364 9.67634 10.6724 10.0048C10.8085 10.3332 11.1289 10.5473 11.4844 10.5473H11.9993L9.98401 12.5626C9.73264 12.814 9.65747 13.192 9.79346 13.5204C9.92952 13.8489 10.25 14.063 10.6055 14.063H11.1203L9.10505 16.0783C8.85368 16.3297 8.7785 16.7077 8.9145 17.0361C9.05055 17.3645 9.371 17.5787 9.72649 17.5787H14.121V20.2739H14.1212C14.1212 20.7593 14.5147 21.1528 15.0001 21.1528C15.4855 21.1528 15.879 20.7593 15.879 20.2739V17.5786H20.2735C20.629 17.5786 20.9495 17.3644 21.0855 17.036C21.2215 16.7076 21.1464 16.3295 20.895 16.0782ZM15.0001 7.39575L16.3939 8.78952H15.879C15.5235 8.78952 15.2031 9.00368 15.067 9.3321C15.0228 9.43874 15.001 9.55059 15.0001 9.66169C14.9992 9.55059 14.9774 9.43874 14.9332 9.3321C14.7971 9.00368 14.4767 8.78952 14.1212 8.78952H13.6063L15.0001 7.39575ZM11.8485 15.8208L13.8637 13.8055C14.1151 13.5541 14.1903 13.1761 14.0543 12.8477C13.9182 12.5192 13.5978 12.3051 13.2423 12.3051H12.7274L14.7427 10.2898C14.9092 10.1233 14.9984 9.90122 15.0002 9.67475C15.0019 9.90122 15.0911 10.1233 15.2576 10.2898L17.2728 12.3051H16.7579C16.4024 12.3051 16.082 12.5193 15.9459 12.8477C15.8099 13.1761 15.8851 13.5542 16.1365 13.8056L18.1517 15.8208H11.8485Z" fill="#002033" fill-opacity="0.3"/>
</svg>
