<svg width="32" height="32" viewBox="0 0 32 32" fill="none" xmlns="http://www.w3.org/2000/svg">
<g opacity="0.3">
<path d="M16 0C7.157 0 0 7.15606 0 16C0 24.843 7.15606 32 16 32C24.843 32 32 24.8439 32 16C32 7.157 24.8439 0 16 0ZM16 29.8667C8.35394 29.8667 2.13331 23.6461 2.13331 16C2.13331 8.35388 8.35394 2.13331 16 2.13331C23.6461 2.13331 29.8667 8.35394 29.8667 16C29.8667 23.6461 23.6461 29.8667 16 29.8667Z" fill="#002033"/>
<path d="M15.5938 19.4967C14.8362 19.4967 14.2229 20.128 14.2229 20.8857C14.2229 21.6253 14.8181 22.2747 15.5938 22.2747C16.3695 22.2747 16.9828 21.6253 16.9828 20.8857C16.9828 20.128 16.3515 19.4967 15.5938 19.4967Z" fill="#002033"/>
<path d="M15.8284 8.98021C13.3932 8.98021 12.2747 10.4234 12.2747 11.3975C12.2747 12.101 12.87 12.4257 13.357 12.4257C14.3312 12.4257 13.9343 11.0367 15.7743 11.0367C16.6763 11.0367 17.3979 11.4335 17.3979 12.2634C17.3979 13.2375 16.3877 13.7968 15.7924 14.3018C15.2692 14.7528 14.5837 15.4924 14.5837 17.0438C14.5837 17.9818 14.8363 18.2524 15.5758 18.2524C16.4598 18.2524 16.6402 17.8556 16.6402 17.5128C16.6402 16.5749 16.6582 16.0336 17.6503 15.2579C18.1375 14.8791 19.6708 13.6525 19.6708 11.9568C19.6708 10.2611 18.1375 8.98021 15.8284 8.98021Z" fill="#002033"/>
</g>
</svg>
