<svg width="30" height="30" viewBox="0 0 30 30" fill="none" xmlns="http://www.w3.org/2000/svg">
<path d="M13.2424 5.27314C13.7278 5.27314 14.1213 4.87967 14.1213 4.39429C14.1213 3.90892 13.7278 3.51544 13.2424 3.51544C12.757 3.51544 12.3636 3.90892 12.3636 4.39429C12.3636 4.87967 12.757 5.27314 13.2424 5.27314Z" fill="#002033" fill-opacity="0.3"/>
<path d="M16.7579 5.27314C17.2433 5.27314 17.6367 4.87967 17.6367 4.39429C17.6367 3.90892 17.2433 3.51544 16.7579 3.51544C16.2725 3.51544 15.879 3.90892 15.879 4.39429C15.879 4.87967 16.2725 5.27314 16.7579 5.27314Z" fill="#002033" fill-opacity="0.3"/>
<path d="M15.0001 17.5773C15.4855 17.5773 15.879 17.1839 15.879 16.6985C15.879 16.2131 15.4855 15.8196 15.0001 15.8196C14.5147 15.8196 14.1213 16.2131 14.1213 16.6985C14.1213 17.1839 14.5147 17.5773 15.0001 17.5773Z" fill="#002033" fill-opacity="0.3"/>
<path d="M15.0001 14.0618C15.4855 14.0618 15.879 13.6684 15.879 13.183C15.879 12.6976 15.4855 12.3041 15.0001 12.3041C14.5147 12.3041 14.1213 12.6976 14.1213 13.183C14.1213 13.6684 14.5147 14.0618 15.0001 14.0618Z" fill="#002033" fill-opacity="0.3"/>
<path d="M24.6678 8.78878H20.5595C20.947 7.97192 21.1523 7.07303 21.1523 6.15217C21.1523 2.75983 18.3925 0 15.0002 0C11.6079 0 8.84802 2.75983 8.84802 6.15212C8.84802 7.07298 9.05327 7.97192 9.44087 8.78872H5.33256C3.3941 8.78872 1.81705 10.3658 1.81705 12.3042C1.81705 14.2427 3.3941 15.8197 5.33256 15.8197H8.74284L6.31665 25.6298C5.79293 27.7222 7.26024 29.805 9.45253 29.9883C11.1393 30.1292 12.7386 28.9295 13.1718 27.1969L14.1475 23.2941C14.3019 22.6764 14.8392 22.6284 15.0002 22.6284C15.1612 22.6284 15.6985 22.6764 15.8528 23.2941L16.8631 27.3351C17.3361 29.2268 19.2481 30.3661 21.1257 29.893C23.0121 29.4219 24.1551 27.5135 23.6842 25.6322L21.2576 15.8197H24.6678C26.6063 15.8197 28.1833 14.2427 28.1833 12.3042C28.1833 10.3658 26.6063 8.78878 24.6678 8.78878ZM5.33256 14.062C4.36336 14.062 3.5748 13.2735 3.5748 12.3043C3.5748 11.3351 4.36336 10.5465 5.33256 10.5465V14.062ZM11.4665 26.7706C11.2401 27.6764 10.4372 28.3067 9.59902 28.2367C8.46276 28.1417 7.76602 27.0785 8.02243 26.0541L8.19382 25.3612L11.6739 25.9412L11.4665 26.7706ZM21.9785 26.0565C22.2137 26.9958 21.6463 27.9512 20.6981 28.1881C19.7615 28.4241 18.8054 27.8567 18.5684 26.9089L18.3265 25.9412L21.8065 25.3612L21.9785 26.0565ZM22.91 14.062H20.1348C19.8645 14.062 19.6093 14.1864 19.4427 14.3992C19.2761 14.612 19.2167 14.8896 19.2815 15.1519L21.3832 23.6498L17.8987 24.2306L17.5579 22.868C17.2593 21.6735 16.2314 20.8709 15.0001 20.8709C13.7688 20.8709 12.7408 21.6735 12.4422 22.868L12.1015 24.2306L8.61698 23.6498L10.7186 15.1519C10.7835 14.8896 10.7241 14.612 10.5575 14.3992C10.3909 14.1864 10.1357 14.062 9.86538 14.062H7.09014V10.5465H11.0695C11.4162 10.5465 11.7305 10.3427 11.8719 10.0263C12.0135 9.70982 11.9557 9.33979 11.7246 9.08151C11.0031 8.27555 10.6058 7.23516 10.6058 6.15217C10.6058 3.72909 12.5772 1.75781 15.0002 1.75781C17.4233 1.75781 19.3946 3.72914 19.3946 6.15217C19.3946 7.23516 18.9972 8.27555 18.2758 9.08151C18.0446 9.33979 17.9868 9.70987 18.1283 10.0263C18.2698 10.3427 18.584 10.5465 18.9307 10.5465H22.9101V14.062H22.91ZM24.6678 14.062V10.5465C25.637 10.5465 26.4256 11.3351 26.4256 12.3043C26.4256 13.2735 25.637 14.062 24.6678 14.062Z" fill="#002033" fill-opacity="0.3"/>
<path d="M16.8648 6.77312C16.5216 6.42988 15.9651 6.42988 15.6219 6.77312C15.4559 6.93911 15.2352 7.03058 15.0004 7.03058C14.7656 7.03058 14.5449 6.93917 14.3789 6.77312C14.0357 6.42993 13.4792 6.42993 13.136 6.77312C12.7928 7.11636 12.7928 7.67277 13.136 8.01601C13.65 8.53005 14.3252 8.78705 15.0004 8.78705C15.6756 8.78705 16.3508 8.53005 16.8648 8.01601C17.208 7.67277 17.208 7.11636 16.8648 6.77312Z" fill="#002033" fill-opacity="0.3"/>
</svg>
