<svg width="32" height="32" viewBox="0 0 32 32" fill="none" xmlns="http://www.w3.org/2000/svg">
<g opacity="0.3" clip-path="url(#clip0_1:767)">
<path d="M31.5062 3.17877C31.1153 2.70074 30.5298 2.43756 29.8575 2.43756C29.492 2.43756 29.1048 2.51447 28.7068 2.66656L1.61943 13.0067C0.181935 13.5552 -0.0116685 14.3785 0.000782645 14.8204C0.0132338 15.2623 0.253224 16.0733 1.71953 16.5399C1.72832 16.5425 1.73711 16.5452 1.7459 16.5477L7.36455 18.1556L10.4031 26.8445C10.8174 28.0291 11.7474 28.765 12.8304 28.765C13.5132 28.765 14.1849 28.4788 14.7728 27.9378L18.2481 24.7379L23.2889 28.7967C23.2894 28.7972 23.2901 28.7974 23.2906 28.7979L23.3384 28.8365C23.3428 28.8399 23.3475 28.8436 23.3519 28.847C23.9122 29.2816 24.5237 29.511 25.1211 29.5113H25.1214C26.2886 29.5113 27.2181 28.6473 27.4888 27.3104L31.9271 5.39532C32.1053 4.51569 31.9559 3.72858 31.5062 3.17877ZM9.24419 17.8502L20.0843 12.3123L13.3345 19.4844C13.2239 19.6019 13.1456 19.7457 13.107 19.9022L11.8055 25.1741L9.24419 17.8502ZM13.5025 26.5584C13.4576 26.5997 13.4124 26.6365 13.3672 26.6705L14.5748 21.7798L16.7713 23.5486L13.5025 26.5584ZM30.0894 5.02301L25.6512 26.9383C25.6084 27.148 25.472 27.636 25.1211 27.636C24.9478 27.636 24.73 27.5416 24.5071 27.3699L18.7952 22.7708C18.7945 22.7701 18.7935 22.7693 18.7925 22.7689L15.3938 20.032L25.1548 9.66022C25.4673 9.32819 25.4957 8.81964 25.222 8.4549C24.948 8.09015 24.4517 7.9754 24.0457 8.18292L7.99151 16.3846L2.29644 14.7552L29.3755 4.41827C29.6043 4.33087 29.764 4.31256 29.8575 4.31256C29.9148 4.31256 30.0169 4.3194 30.0547 4.36603C30.1045 4.42682 30.168 4.63409 30.0894 5.02301Z" fill="#002033"/>
</g>
<defs>
<clipPath id="clip0_1:767">
<rect width="32" height="32" fill="white"/>
</clipPath>
</defs>
</svg>
