<svg width="30" height="30" viewBox="0 0 30 30" fill="none" xmlns="http://www.w3.org/2000/svg">
<path d="M27.3047 24.7266C26.8193 24.7266 26.4258 25.1201 26.4258 25.6055C26.4258 27.0594 25.2429 28.2422 23.7891 28.2422H22.9102V26.3332C23.9331 25.9704 24.668 24.9935 24.668 23.8477V22.0898V17.9195C24.668 15.7625 23.1237 13.9395 20.9959 13.5848L16.3243 12.8062C15.034 12.5912 14.121 11.4847 14.121 10.2054V0.878906C14.121 0.393516 13.7275 0 13.2421 0H11.4843C10.3384 0 9.36094 0.734707 8.99818 1.75781H4.45312C2.99924 1.75781 1.81641 2.94064 1.81641 4.39453C1.81641 4.79678 1.81641 23.447 1.81641 23.8477C1.81641 25.3015 2.99924 26.4844 4.45312 26.4844H5.33203V28.2422H2.69531C2.20992 28.2422 1.81641 28.6357 1.81641 29.1211C1.81641 29.6065 2.20992 30 2.69531 30C3.00281 30 23.3488 30 23.7891 30C26.2122 30 28.1836 28.0286 28.1836 25.6055C28.1836 25.1201 27.7901 24.7266 27.3047 24.7266ZM17.6367 18.457C17.6367 17.1451 18.2263 15.9042 19.229 15.0724L20.707 15.3188C21.9836 15.5315 22.9102 16.6253 22.9102 17.9195V21.2109H17.6367V18.457ZM16.0354 14.5401L17.1421 14.7246C16.7091 15.2924 16.3777 15.9316 16.1631 16.6124L15.7462 16.5429C13.4072 16.1531 11.5537 14.502 10.8793 12.3046H12.8936C13.5204 13.4613 14.6548 14.31 16.0354 14.5401ZM10.6055 2.63672C10.6055 2.63666 10.6055 2.63666 10.6055 2.6366C10.6055 2.63654 10.6055 2.63654 10.6055 2.63648C10.6055 2.15197 10.9997 1.75781 11.4844 1.75781H12.3633V7.03125H11.4844C11.1834 7.03125 10.8895 7.06178 10.6055 7.11967V2.63672ZM11.4844 8.78906H12.3633V10.2054C12.3633 10.3203 12.3686 10.434 12.3772 10.5469H8.99824C9.36094 9.52377 10.3385 8.78906 11.4844 8.78906ZM3.57422 4.39453C3.57422 3.9099 3.9685 3.51562 4.45312 3.51562H8.84766V7.91256C7.78102 8.71512 7.08984 9.99117 7.08984 11.4258C7.08984 11.9112 7.48336 12.3047 7.96875 12.3047H9.06047C9.77215 15.3425 12.2391 17.7405 15.4572 18.2769L15.8806 18.3474C15.8799 18.3839 15.8789 18.4204 15.8789 18.457V21.2109C15.3254 21.2109 11.1244 21.2109 10.5573 21.2109C10.1567 17.5303 7.24025 14.5276 3.57422 14.1125V4.39453ZM3.57422 15.8841C6.27023 16.2788 8.40732 18.4613 8.78742 21.2109H3.57422C3.57422 20.6401 3.57422 16.5312 3.57422 15.8841ZM4.45312 24.7266C3.9685 24.7266 3.57422 24.3323 3.57422 23.8477V22.9688H8.84766V23.8477C8.84766 24.3323 8.45338 24.7266 7.96875 24.7266H4.45312ZM14.1211 28.2422H7.08984V26.4844H7.96875C9.42264 26.4844 10.6055 25.3015 10.6055 23.8477V22.9688H12.3633V23.8477C12.3633 24.9935 13.0981 25.9704 14.1211 26.3332V28.2422ZM21.1523 28.2422H15.8789V26.4844H21.1523V28.2422ZM22.0312 24.7266H15C14.5154 24.7266 14.1211 24.3323 14.1211 23.8477V22.9688C14.4071 22.9688 22.2769 22.9688 22.9102 22.9688V23.8477C22.9102 24.3323 22.5159 24.7266 22.0312 24.7266Z" fill="#002033" fill-opacity="0.3"/>
</svg>
