<svg width="30" height="30" viewBox="0 0 30 30" fill="none" xmlns="http://www.w3.org/2000/svg">
<path d="M11.4844 17.6367C11.9698 17.6367 12.3633 17.2432 12.3633 16.7578C12.3633 16.2724 11.9698 15.8789 11.4844 15.8789C10.999 15.8789 10.6055 16.2724 10.6055 16.7578C10.6055 17.2432 10.999 17.6367 11.4844 17.6367Z" fill="#002033" fill-opacity="0.3"/>
<path d="M18.5156 17.6367C19.001 17.6367 19.3945 17.2432 19.3945 16.7578C19.3945 16.2724 19.001 15.8789 18.5156 15.8789C18.0302 15.8789 17.6367 16.2724 17.6367 16.7578C17.6367 17.2432 18.0302 17.6367 18.5156 17.6367Z" fill="#002033" fill-opacity="0.3"/>
<path d="M18.1071 22.1377C17.7639 21.7944 17.2073 21.7944 16.8641 22.1377C16.3661 22.6357 15.7039 22.9099 14.9997 22.9099C14.3344 22.9099 13.6992 22.6616 13.211 22.2106C12.8545 21.8812 12.2984 21.9032 11.969 22.2597C11.6396 22.6163 11.6616 23.1723 12.0182 23.5017C12.8321 24.2537 13.891 24.6678 14.9997 24.6678C16.1735 24.6678 17.2771 24.2106 18.1071 23.3806C18.4503 23.0374 18.4503 22.4809 18.1071 22.1377Z" fill="#002033" fill-opacity="0.3"/>
<path d="M26.4258 9.72656C26.4258 7.92949 25.341 6.3818 23.7923 5.70152C22.2552 2.33977 18.876 0 15 0C10.6495 0 6.8318 2.96648 5.68107 7.14334C4.48025 7.38932 3.57422 8.45408 3.57422 9.72656V11.4844C3.57422 12.1885 3.85219 12.8285 4.30348 13.3019C3.81949 14.6844 3.57422 16.1394 3.57422 17.6367C3.57422 24.4539 8.69982 30 15 30C21.3002 30 26.4258 24.4539 26.4258 17.6367C26.4258 15.8798 26.0726 14.1317 25.4021 12.5421C26.0406 11.779 26.4258 10.7971 26.4258 9.72656ZM15 1.75781C17.6912 1.75781 20.1468 3.13031 21.5996 5.35348C20.4325 5.46779 19.3984 6.04096 18.6792 6.88934L17.3793 5.58943C17.0361 5.24619 16.4796 5.24619 16.1363 5.58943C15.7931 5.93268 15.7931 6.48914 16.1363 6.83238L16.3937 7.08979H7.53844C8.64111 3.94447 11.6248 1.75781 15 1.75781ZM21.0893 14.1211C21.1307 14.4111 21.1523 14.7049 21.1523 15C21.1523 16.5202 20.5885 17.9793 19.5855 19.1014C18.7938 18.5382 17.8999 18.1216 16.9618 17.8821C16.7171 17.8196 16.4575 17.8654 16.2489 18.0077C16.0403 18.1501 15.9031 18.3752 15.8721 18.6258C15.8179 19.064 15.443 19.3945 15 19.3945C14.557 19.3945 14.1821 19.064 14.1278 18.6258C14.0968 18.3752 13.9596 18.1501 13.751 18.0077C13.5425 17.8654 13.2828 17.8196 13.0382 17.8821C12.1001 18.1216 11.2062 18.5382 10.4144 19.1014C9.4115 17.9793 8.84766 16.5202 8.84766 15C8.84766 14.7049 8.86928 14.4111 8.9107 14.1211H21.0893ZM5.33203 9.72656C5.33203 9.24193 5.72631 8.8418 6.21094 8.8418C6.7568 8.8418 17.1681 8.8418 17.7251 8.8418C17.6672 9.12586 17.6367 9.41977 17.6367 9.7207C17.6367 10.6755 17.9412 11.5952 18.5177 12.3633H6.21094C5.72631 12.3633 5.33203 11.969 5.33203 11.4844V9.72656ZM15 28.2422C9.66908 28.2422 5.33203 23.4846 5.33203 17.6367C5.33203 16.417 5.51918 15.2312 5.88873 14.1007C5.99443 14.1137 6.10178 14.1152 6.21094 14.1152H7.1393C7.10707 14.4064 7.08984 14.7057 7.08984 15C7.08984 17.2682 8.06584 19.4304 9.76758 20.9324C10.0999 21.2256 10.5985 21.2256 10.9308 20.9324C11.4584 20.4667 12.0654 20.0938 12.7156 19.8329C13.1746 20.6266 14.0334 21.1523 15 21.1523C15.9666 21.1523 16.8254 20.6266 17.2844 19.8329C17.9346 20.0938 18.5416 20.4666 19.0692 20.9324C19.4015 21.2256 19.9002 21.2256 20.2324 20.9324C21.9342 19.4304 22.9102 17.2682 22.9102 15C22.9102 14.681 22.8905 14.3629 22.8526 14.0477C22.858 14.0454 22.863 14.0426 22.8684 14.0402C23.2525 13.9658 23.619 13.8415 23.9606 13.6739C24.4247 14.9256 24.668 16.2773 24.668 17.6367C24.668 23.4846 20.3309 28.2422 15 28.2422ZM22.0312 12.3633C20.6299 12.3633 19.3945 11.2253 19.3945 9.72656C19.3945 8.27268 20.5774 7.08984 22.0312 7.08984C23.4851 7.08984 24.668 8.27268 24.668 9.72656C24.668 11.1804 23.4851 12.3633 22.0312 12.3633Z" fill="#002033" fill-opacity="0.3"/>
</svg>
