<svg width="30" height="30" viewBox="0 0 30 30" fill="none" xmlns="http://www.w3.org/2000/svg">
<path d="M20.059 13.415L17.5933 12.0183C17.6216 11.8639 17.6371 11.7053 17.6371 11.543C17.6371 11.3807 17.6216 11.222 17.5934 11.0677L20.0591 9.67096C20.4815 9.43172 20.6299 8.89541 20.3906 8.47301C20.1514 8.05061 19.6149 7.90225 19.1927 8.14148L16.7169 9.54393C16.4723 9.33363 16.1892 9.16729 15.8793 9.05742V6.26953C15.8793 5.78414 15.4858 5.39062 15.0004 5.39062C14.515 5.39062 14.1215 5.78414 14.1215 6.26953V9.05742C13.8117 9.16729 13.5285 9.33369 13.284 9.54393L10.8081 8.14148C10.3858 7.90225 9.8494 8.05066 9.61016 8.47301C9.37092 8.89535 9.5194 9.43172 9.94174 9.67096L12.4075 11.0677C12.3792 11.222 12.3637 11.3807 12.3637 11.543C12.3637 11.7053 12.3792 11.8639 12.4074 12.0182L9.94162 13.4149C9.51934 13.6542 9.37086 14.1905 9.6101 14.6129C9.8494 15.0353 10.3857 15.1836 10.808 14.9444L13.2839 13.542C13.5285 13.7522 13.8116 13.9186 14.1215 14.0285V16.8164C14.1215 17.3018 14.515 17.6953 15.0004 17.6953C15.4858 17.6953 15.8793 17.3018 15.8793 16.8164V14.0285C16.1891 13.9186 16.4723 13.7522 16.7168 13.542L19.1927 14.9445C19.6149 15.1836 20.1513 15.0353 20.3906 14.6129C20.6298 14.1906 20.4814 13.6542 20.059 13.415ZM15.0004 12.4219C14.5157 12.4219 14.1215 12.0276 14.1215 11.543C14.1215 11.0583 14.5157 10.6641 15.0004 10.6641C15.485 10.6641 15.8793 11.0583 15.8793 11.543C15.8793 12.0276 15.485 12.4219 15.0004 12.4219Z" fill="#002033" fill-opacity="0.3"/>
<path d="M29.7028 12.6421C29.7018 12.6413 29.7009 12.6402 29.6999 12.6393L29.6982 12.6379C29.698 12.6376 29.6978 12.6374 29.6975 12.6372L26.4844 9.82576V0.878906C26.4844 0.393516 26.0909 0 25.6055 0H4.39453C3.90914 0 3.51562 0.393516 3.51562 0.878906V9.82582C3.49201 9.8465 0.298418 12.641 0.298418 12.641C0.114785 12.8026 0 13.0438 0 13.3008V27.3633C0 28.8173 1.18523 30 2.63672 30H27.3633C28.8141 30 30 28.8181 30 27.3633V13.3008C30 13.043 29.8849 12.803 29.7028 12.6421ZM26.4844 12.1615L27.7848 13.2994L26.4844 14.4326V12.1615ZM5.27344 1.75781H24.7266V15.9643L15 24.4397L5.27344 15.9643V1.75781ZM3.51562 12.1615V14.4326L2.2152 13.2994L3.51562 12.1615ZM1.75781 26.9992V15.2324C2.09607 15.5271 7.73133 20.4376 8.04562 20.7114L1.75781 26.9992ZM3.00076 28.2422L9.374 21.8689L14.4226 26.2681C14.7535 26.5564 15.2464 26.5564 15.5774 26.2681L20.6259 21.8689L26.9992 28.2422H3.00076ZM28.2422 26.9992L21.9544 20.7114C22.0623 20.6174 28.1254 15.3342 28.2422 15.2324V26.9992Z" fill="#002033" fill-opacity="0.3"/>
</svg>
