<svg width="30" height="30" viewBox="0 0 30 30" fill="none" xmlns="http://www.w3.org/2000/svg">
<g clip-path="url(#clip0_1:8015)">
<path d="M26.5414 25.1468L22.0622 17.9773H22.5918C22.9185 17.9773 23.2181 17.7962 23.3698 17.5072C23.5218 17.2181 23.5007 16.8686 23.3156 16.5997L20.1888 12.0616C20.4985 12.0433 20.7773 11.8623 20.9196 11.5837C21.0698 11.2894 21.0421 10.9357 20.8482 10.6682L16.2955 4.38972C16.9533 3.96469 17.3903 3.22517 17.3903 2.38495C17.3903 1.06979 16.3212 0 15.0074 0C13.6934 0 12.6245 1.06979 12.6245 2.38495C12.6245 3.22517 13.0614 3.96469 13.7192 4.38972L9.16655 10.6682C8.97269 10.9357 8.94499 11.2894 9.09514 11.5835C9.23727 11.8623 9.51605 12.0431 9.82596 12.0616L6.6992 16.5997C6.51381 16.8686 6.49298 17.2181 6.64473 17.5072C6.79671 17.7962 7.09631 17.9773 7.42293 17.9773H7.95233L3.47311 25.1468C3.30397 25.4178 3.29504 25.7593 3.45 26.0385C3.60495 26.318 3.89906 26.4915 4.21858 26.4915H5.08902C5.11237 26.4933 5.13571 26.4949 5.15951 26.4949H5.17279C5.21994 26.4942 5.26663 26.4924 5.31378 26.4915H12.4146V29.1211C12.4146 29.6066 12.8081 30 13.2935 30H16.7213C17.2065 30 17.6002 29.6066 17.6002 29.1211V26.4915H25.7962C26.1155 26.4915 26.41 26.318 26.5648 26.0385C26.7197 25.7593 26.7108 25.4178 26.5414 25.1468ZM16.5679 7.75978C15.9261 9.10583 14.4826 11.3708 11.7264 12.4015L12.2214 11.6828C12.4068 11.4141 12.4277 11.0646 12.2759 10.7755C12.1395 10.516 11.8841 10.3434 11.597 10.3109L15.0074 5.60783L16.5679 7.75978ZM20.4767 16.2195C20.1572 16.2195 19.8629 16.3927 19.7082 16.6722C19.5532 16.9517 19.5621 17.2932 19.7313 17.5642L20.3023 18.4779C17.767 18.2787 15.4654 17.1014 13.8781 16.0535C12.9511 15.4417 12.1686 14.8121 11.5819 14.298C13.0582 13.878 14.3883 13.1307 15.5517 12.0657C16.521 11.1779 17.2214 10.2102 17.7187 9.34685L18.4177 10.3109C18.1307 10.3436 17.8753 10.516 17.7389 10.7755C17.5869 11.0646 17.6079 11.4141 17.7931 11.683L20.9189 16.2195H20.4767ZM9.85983 15.1105C10.5099 15.721 11.5476 16.6175 12.8708 17.4948C15.049 18.9393 17.2651 19.8347 19.3971 20.1434C18.7148 20.6099 17.8581 21.1455 16.8464 21.6806C14.4015 22.974 10.5426 24.5176 5.81435 24.7172L10.2833 17.5639C10.4524 17.2932 10.4613 16.9517 10.3066 16.6722C10.1517 16.3927 9.85731 16.2195 9.5378 16.2195H9.09582L9.85983 15.1105ZM14.3329 24.7337C15.6423 24.2422 16.7819 23.7057 17.7247 23.2045C19.5459 22.2359 20.8851 21.2769 21.6672 20.6625L24.2107 24.7337H14.3329ZM15.0074 1.75781C15.3521 1.75781 15.6325 2.03911 15.6325 2.38495C15.6325 2.73056 15.3521 3.01186 15.0074 3.01186C14.6627 3.01186 14.3823 2.73056 14.3823 2.38495C14.3823 2.03911 14.6627 1.75781 15.0074 1.75781ZM15.8423 28.2422H14.1724V26.4915H15.8423V28.2422Z" fill="#002033" fill-opacity="0.3"/>
<path d="M17.842 14.5942C17.842 13.9432 17.3174 13.4156 16.6702 13.4156C16.0229 13.4156 15.4983 13.9432 15.4983 14.5942C15.4983 15.2449 16.0229 15.7727 16.6702 15.7727C17.3174 15.7727 17.842 15.2449 17.842 14.5942Z" fill="#002033" fill-opacity="0.3"/>
<path d="M13.085 20.8452C13.085 20.1943 12.5601 19.6667 11.9131 19.6667C11.2658 19.6667 10.7412 20.1943 10.7412 20.8452C10.7412 21.4959 11.2658 22.0235 11.9131 22.0235C12.5601 22.0235 13.085 21.4959 13.085 20.8452Z" fill="#002033" fill-opacity="0.3"/>
</g>
<defs>
<clipPath id="clip0_1:8015">
<rect width="30" height="30" fill="white"/>
</clipPath>
</defs>
</svg>
