<svg width="30" height="30" viewBox="0 0 30 30" fill="none" xmlns="http://www.w3.org/2000/svg">
<path d="M7.96875 22.9102C8.45416 22.9102 8.84766 22.5167 8.84766 22.0312C8.84766 21.5458 8.45416 21.1523 7.96875 21.1523C7.48334 21.1523 7.08984 21.5458 7.08984 22.0312C7.08984 22.5167 7.48334 22.9102 7.96875 22.9102Z" fill="#002033" fill-opacity="0.3"/>
<path d="M11.4844 15.8789C11.9698 15.8789 12.3633 15.4854 12.3633 15C12.3633 14.5146 11.9698 14.1211 11.4844 14.1211C10.999 14.1211 10.6055 14.5146 10.6055 15C10.6055 15.4854 10.999 15.8789 11.4844 15.8789Z" fill="#002033" fill-opacity="0.3"/>
<path d="M15 22.9102C15.4854 22.9102 15.8789 22.5167 15.8789 22.0312C15.8789 21.5458 15.4854 21.1523 15 21.1523C14.5146 21.1523 14.1211 21.5458 14.1211 22.0312C14.1211 22.5167 14.5146 22.9102 15 22.9102Z" fill="#002033" fill-opacity="0.3"/>
<path d="M22.0312 22.9102C22.5167 22.9102 22.9102 22.5167 22.9102 22.0312C22.9102 21.5458 22.5167 21.1523 22.0312 21.1523C21.5458 21.1523 21.1523 21.5458 21.1523 22.0312C21.1523 22.5167 21.5458 22.9102 22.0312 22.9102Z" fill="#002033" fill-opacity="0.3"/>
<path d="M18.5156 15.8789C19.001 15.8789 19.3945 15.4854 19.3945 15C19.3945 14.5146 19.001 14.1211 18.5156 14.1211C18.0302 14.1211 17.6367 14.5146 17.6367 15C17.6367 15.4854 18.0302 15.8789 18.5156 15.8789Z" fill="#002033" fill-opacity="0.3"/>
<path d="M21.1523 8.84203V6.15234C21.1523 4.69846 19.9695 3.51562 18.5156 3.51562H17.6367V2.63672C17.6367 1.18283 16.4539 0 15 0C13.5461 0 12.3633 1.18283 12.3633 2.63672V3.51562H11.4844C10.0305 3.51562 8.84766 4.69846 8.84766 6.15234V8.84203C5.6785 10.8855 3.57422 14.4582 3.57422 18.5156C3.57422 24.8481 8.69982 30 15 30C21.3002 30 26.4258 24.8481 26.4258 18.5156C26.4258 14.4582 24.3215 10.8855 21.1523 8.84203ZM14.1211 2.63672C14.1211 2.15209 14.5154 1.75781 15 1.75781C15.4846 1.75781 15.8789 2.15209 15.8789 2.63672V3.51562H14.1211V2.63672ZM10.6055 6.15234C10.6055 5.66772 10.9997 5.27344 11.4844 5.27344C12.2237 5.27344 17.7542 5.27344 18.5156 5.27344C19.0003 5.27344 19.3945 5.66772 19.3945 6.15234V7.91514C18.041 7.34619 16.5565 7.03125 15 7.03125C13.4435 7.03125 11.959 7.34619 10.6055 7.91514V6.15234ZM15 8.78906C20.2071 8.78906 24.4652 12.9523 24.6602 18.1438L22.6528 16.1363C22.3096 15.7931 21.753 15.7931 21.4098 16.1363L18.5156 19.0305L15.6214 16.1363C15.2783 15.7931 14.7217 15.7931 14.3785 16.1363L11.4844 19.0305L8.5902 16.1363C8.24701 15.7931 7.69049 15.7931 7.34725 16.1363L5.33977 18.1438C5.53477 12.9523 9.79289 8.78906 15 8.78906ZM15 28.2422C10.3259 28.2422 6.41602 24.8876 5.52357 20.4459L7.96875 18.0008L10.8629 20.8949C11.2061 21.2382 11.7626 21.2382 12.1059 20.8949L15 18.0008L17.8942 20.8949C18.0657 21.0666 18.2907 21.1523 18.5156 21.1523C18.7406 21.1523 18.9655 21.0666 19.1371 20.8949L22.0312 18.0008L24.4764 20.4459C23.584 24.8876 19.6741 28.2422 15 28.2422Z" fill="#002033" fill-opacity="0.3"/>
</svg>
